<svg height="512" viewBox="0 0 128 128" width="512" xmlns="http://www.w3.org/2000/svg"><g><path d="m59.585 84.625h8.83a16.835 16.835 0 0 1 16.835 16.835 0 0 0 0 1 0 0h-42.5a0 0 0 0 1 0 0 16.835 16.835 0 0 1 16.835-16.835z" fill="#ff405d"/><path d="m59.522 38.453c-2.989 2.89-9.54 4.9-17.162 4.9-.733 0-1.454-.023-2.166-.059v22.317a23.806 23.806 0 1 0 47.612 0v-19.371c-14.284 4.621-26.327-3.921-28.284-7.787z" fill="#ffdccd"/><path d="m86.578 34.952a14.157 14.157 0 0 0 -12.935-8.412h-19.286a14.185 14.185 0 0 0 -14.163 14.16v2.6c.712.036 1.433.059 2.166.059 7.622 0 14.173-2.011 17.162-4.9 1.957 3.866 14 12.408 28.284 7.787v-5.546a14.1 14.1 0 0 0 -1.228-5.748z" fill="#9c5e4a"/><rect fill="#fff4f4" height="10.082" rx="5.041" width="17.783" x="55.109" y="68.505"/><g fill="#ffcabc"><path d="m87.806 51.5v12.5a6.25 6.25 0 0 0 0-12.5z"/><path d="m40.194 51.5v12.5a6.25 6.25 0 0 1 0-12.5z"/></g></g><path d="m47.016 28.468a1.751 1.751 0 0 1 -.3 2.457c-.2.158-.4.323-.59.494a1.75 1.75 0 0 1 -2.326-2.611q.37-.33.762-.637a1.75 1.75 0 0 1 2.454.297zm6.342 45.079a6.8 6.8 0 0 1 6.791-6.792h7.7a6.792 6.792 0 0 1 0 13.583h-7.7a6.8 6.8 0 0 1 -6.791-6.791zm3.5 0a3.3 3.3 0 0 0 3.291 3.291h7.7a3.292 3.292 0 0 0 0-6.583h-7.7a3.3 3.3 0 0 0 -3.291 3.292zm-7.378-12.953a1.75 1.75 0 0 0 2.46.272l4.443-3.556a1.751 1.751 0 0 0 0-2.733l-4.443-3.556a1.75 1.75 0 1 0 -2.187 2.732l2.736 2.19-2.736 2.191a1.751 1.751 0 0 0 -.273 2.46zm29.04-9.3a1.751 1.751 0 0 0 -2.46-.272l-4.443 3.556a1.751 1.751 0 0 0 0 2.733l4.443 3.556a1.75 1.75 0 1 0 2.187-2.732l-2.736-2.191 2.736-2.19a1.751 1.751 0 0 0 .273-2.461zm-53.73 18.839a5.17 5.17 0 0 0 5.164 5.167h10.395a25.323 25.323 0 0 0 1.36 2.786h-7.765a1.75 1.75 0 0 0 0 3.5h14.723a1.75 1.75 0 0 0 0-3.5h-2.84a22.03 22.03 0 0 1 -1.635-2.786h4.475a1.75 1.75 0 0 0 0-3.5h-5.83a22.093 22.093 0 0 1 -.893-6.186v-20.514c6.987.044 13.384-1.5 17.233-4.13 3.816 4.384 14.26 10.6 26.879 7.576v17.065a1.75 1.75 0 0 0 3.5 0v-1.864a6.246 6.246 0 0 0 0-11.994v-11.053a15.933 15.933 0 0 0 -15.913-15.91h-19.286a15.923 15.923 0 0 0 -4.4.617 1.75 1.75 0 0 0 .967 3.364 12.406 12.406 0 0 1 3.431-.481h19.288a12.435 12.435 0 0 1 12.413 12.41v4.231c-12.874 3.495-23.456-4.283-24.972-7.268a1.75 1.75 0 0 0 -2.777-.468c-2.772 2.679-9.031 4.405-15.947 4.405-.14 0-.276-.009-.416-.011v-.889a12.321 12.321 0 0 1 1.077-5.04 1.75 1.75 0 0 0 -3.2-1.424 15.8 15.8 0 0 0 -1.377 6.464v11.05a6.246 6.246 0 0 0 0 11.994v1.864a25.693 25.693 0 0 0 .756 6.192h-9.246a1.664 1.664 0 0 1 0-3.328h4.713a1.75 1.75 0 0 0 0-3.5h-4.713a5.169 5.169 0 0 0 -5.164 5.161zm73.256-5.164h-4.713a1.75 1.75 0 0 0 0 3.5h4.713a1.664 1.664 0 0 1 0 3.328h-18.713a1.75 1.75 0 0 0 0 3.5h4.467a21.872 21.872 0 0 1 -1.626 2.786h-2.841a1.746 1.746 0 0 0 -.12 3.488 22.081 22.081 0 0 1 -15.213 6.096 21.817 21.817 0 0 1 -10.876-2.867l-.016-.01a22.44 22.44 0 0 1 -2.926-1.99 1.75 1.75 0 1 0 -2.194 2.726c.309.249.637.471.957.7a18.719 18.719 0 0 0 -7.945 15.234 1.75 1.75 0 0 0 3.5 0 14.976 14.976 0 0 1 7.75-13.179 25.384 25.384 0 0 0 23.5 0 14.973 14.973 0 0 1 7.75 13.179 1.75 1.75 0 0 0 3.5 0 18.719 18.719 0 0 0 -7.941-15.223 25.619 25.619 0 0 0 4.871-4.654h4.726a1.75 1.75 0 0 0 0-3.5h-2.356a25.485 25.485 0 0 0 1.336-2.783h10.41a5.164 5.164 0 0 0 0-10.328zm-3.99 16.614a1.75 1.75 0 1 0 0-3.5h-.431a1.75 1.75 0 0 0 0 3.5z" fill="#00004e"/></svg>