<svg id="Capa_1" enable-background="new 0 0 512 512" height="512" viewBox="0 0 512 512" width="512" xmlns="http://www.w3.org/2000/svg"><g><path d="m512 512h-90.31l-15.06-15-15.01 15h-271.24l-15-15-15.01 15h-90.229l.13-1.21c7.4-68.84 60.43-123.96 128.93-134.02l59.81-8.78h133.97l59.82 8.73c69.03 10.07 122.319 65.86 129.199 135.28z" fill="#f1f1fa"/><path d="m512 512h-90.31l-15.06-15-15.01 15h-135.62v-144.01h66.98l59.82 8.73c69.031 10.07 122.32 65.86 129.2 135.28z" fill="#ded6fa"/><path d="m90.375 451.747h30v60.253h-30z" fill="#ded6fa"/><path d="m391.625 451.747h30v60.253h-30z" fill="#bcb2df"/><path d="m322.98 367.99c-6.23 37.92-36.61 56.88-66.98 56.88-30.38 0-60.76-18.96-66.99-56.88l16.75-54.16 50.24.01h50.23z" fill="#fab096"/><path d="m322.98 367.99c-6.23 37.92-36.61 56.88-66.98 56.88v-111.03h50.23z" fill="#e38b85"/><path d="m349.01 173.33h-186.03c-15.91-10.81-32.51-24.26-32.22-48.09 0-70.27 54.54-125.24 125.24-125.24 68.22 0 122.24 58.49 122.24 126.6.661 20.31-14.07 36.03-29.23 46.73z" fill="#42789d"/><path d="m349.01 173.33h-93.01v-173.33c68.22 0 122.24 58.49 122.24 126.6.661 20.31-14.07 36.03-29.23 46.73z" fill="#335a8c"/><path d="m349.01 155.92v79.59c0 54.68-41.64 99.01-93.01 99.01-25.69 0-48.94-11.08-65.78-29-16.83-17.92-27.24-42.67-27.24-70.01v-79.59c0-13.11 5.32-24.98 13.91-33.57s20.46-13.91 33.57-13.91c4.423.013 11.355 1.868 15.94 6.6 8.17 8.18 18.88 12.26 29.6 12.26 10.71 0 21.42-4.08 29.59-12.26 4.02-3.718 8.441-6.251 15.95-6.6 13.11 0 24.98 5.32 33.57 13.91 8.591 8.59 13.9 20.46 13.9 33.57z" fill="#ffc7b8"/><path d="m349.01 155.92v79.59c0 54.68-41.64 99.01-93.01 99.01v-207.22c10.71 0 21.42-4.08 29.59-12.26 4.02-3.718 8.441-6.251 15.95-6.6 13.11 0 24.98 5.32 33.57 13.91 8.591 8.59 13.9 20.46 13.9 33.57z" fill="#fab096"/><path d="m104.402 286.78c0-2.656-.253-5.251-.714-7.774l19.026-10.985-15-25.98-19.393 11.196c-3.566-2.871-7.596-5.187-11.965-6.812v-22.489h-30v22.489c-4.369 1.625-8.398 3.941-11.965 6.812l-19.391-11.196-15 25.98 19.026 10.985c-.46 2.523-.714 5.118-.714 7.774 0 2.24.172 4.44.502 6.587l-18.814 10.862 15 25.98 18.463-10.66c3.79 3.229 8.141 5.816 12.894 7.584v21.18h30v-21.18c4.753-1.768 9.105-4.355 12.894-7.584l18.463 10.66 15-25.98-18.814-10.862c.33-2.148.502-4.347.502-6.587z" fill="#c595eb"/><path d="m493.688 224.591c0-2.656-.253-5.251-.714-7.774l19.026-10.984-15-25.98-19.393 11.196c-3.566-2.871-7.596-5.187-11.965-6.812v-22.489h-30v22.489c-4.369 1.625-8.398 3.941-11.965 6.812l-19.393-11.196-15 25.98 19.026 10.985c-.46 2.523-.714 5.118-.714 7.774 0 2.24.172 4.44.502 6.587l-18.814 10.862 15 25.98 18.463-10.66c3.79 3.229 8.141 5.816 12.894 7.584v21.18h30v-21.18c4.753-1.768 9.105-4.355 12.894-7.584l18.465 10.66 15-25.98-18.814-10.862c.33-2.148.502-4.348.502-6.588z" fill="#9e73e1"/><path d="m306.38 275.102-28.9 5.75c-2.34-9.41-11.07-16.41-21.48-16.41s-19.14 7-21.48 16.41l-28.9-5.75c2.75-13.81 16.81-39.94 50.38-39.94s47.63 26.13 50.38 39.94z" fill="#fab096"/><path d="m306.38 275.102-28.9 5.75c-2.34-9.41-11.07-16.41-21.48-16.41v-29.28c33.57 0 47.63 26.13 50.38 39.94z" fill="#e38b85"/></g></svg>