<svg id="Capa_1" enable-background="new 0 0 512 512" height="512" viewBox="0 0 512 512" width="512" xmlns="http://www.w3.org/2000/svg"><g><path d="m225.89 418.064h60.22v78.483h-60.22z" fill="#c7c2c9"/><path d="m481.095 433.517h-450.19c-17.068 0-30.905-13.837-30.905-30.906v-262.317c0-17.069 13.837-30.905 30.905-30.905h450.189c17.069 0 30.905 13.837 30.905 30.905v262.318c.001 17.068-13.836 30.905-30.904 30.905z" fill="#655e67"/><path d="m481.095 109.388h-30.905c17.069 0 30.905 13.837 30.905 30.905v262.318c0 17.068-13.837 30.905-30.905 30.905h30.905c17.069 0 30.905-13.837 30.905-30.905v-262.317c0-17.069-13.837-30.906-30.905-30.906z" fill="#544f56"/><path d="m30.905 399.521v-256.137c0-1.707 1.384-3.091 3.091-3.091h444.008c1.707 0 3.091 1.384 3.091 3.091v256.137c0 1.707-1.384 3.091-3.091 3.091h-444.008c-1.707 0-3.091-1.384-3.091-3.091z" fill="#ecf5ff"/><path d="m478.004 140.294h-30.905c1.707 0 3.091 1.384 3.091 3.091v256.137c0 1.707-1.384 3.091-3.091 3.091h30.905c1.707 0 3.091-1.384 3.091-3.091v-256.138c0-1.706-1.384-3.09-3.091-3.09z" fill="#dceafc"/><path d="m303.597 481.095h-95.194c-15.362 0-27.815 12.453-27.815 27.815 0 1.707 1.384 3.091 3.091 3.091h144.643c1.707 0 3.091-1.384 3.091-3.091-.001-15.362-12.454-27.815-27.816-27.815z" fill="#655e67"/><path d="m303.597 481.095h-30.905c15.362 0 27.815 12.453 27.815 27.815 0 1.707-1.384 3.091-3.091 3.091h30.905c1.707 0 3.091-1.384 3.091-3.091 0-15.362-12.453-27.815-27.815-27.815z" fill="#544f56"/><g><g><path d="m415.599 402.611v-83.565c0-22.106-14.126-41.744-35.099-48.793l-74.579-25.069c-6.991-2.35-11.7-8.896-11.7-16.264v-27.944h-76.442v27.944c0 7.369-4.709 13.915-11.7 16.264l-74.579 25.069c-20.973 7.05-35.099 26.688-35.099 48.793v83.565z" fill="#b3e59f"/><g><path d="m380.5 270.253-74.579-25.069c-6.991-2.35-11.7-8.895-11.7-16.264v-27.944h-76.442v15.453h45.536v27.944c0 7.369 4.709 13.914 11.7 16.264l74.579 25.069c20.973 7.05 35.099 26.688 35.099 48.793v68.112h30.905v-83.565c.001-22.105-14.126-41.743-35.098-48.793z" fill="#95d6a4"/></g><path d="m205.501 245.379 46.989 46.941c2.413 2.411 6.324 2.411 8.737 0l46.557-46.509-1.863-.627c-6.991-2.35-11.7-8.895-11.7-16.264v-27.944h-76.442v27.944c0 7.369-4.709 13.914-11.7 16.264z" fill="#f1ccbd"/><path d="m263.315 244.373c0 7.369 4.709 13.914 11.7 16.264l13.414 4.509 19.355-19.335-1.863-.627c-6.991-2.35-11.7-8.895-11.7-16.264v-27.944h-30.905v43.397z" fill="#eaad9c"/><g><path d="m345.764 105.174h-179.528v-66.201c0-21.524 17.448-38.973 38.973-38.973h101.583c21.524 0 38.973 17.449 38.973 38.973v66.201z" fill="#c17d4f"/><path d="m306.791 0h-30.905c21.524 0 38.973 17.449 38.973 38.973v66.201h30.905v-66.201c0-21.524-17.448-38.973-38.973-38.973z" fill="#b16e3d"/><g><path d="m255.683 215.532c-49.611-.171-89.447-41.085-89.447-90.646v-31.398c17.898.053 44.788-2.209 74.522-14.173 13.87-5.581 25.519-12.13 34.966-18.391 2.043-1.354 4.776-.876 6.279 1.059 4.752 6.12 12.732 14.594 24.834 21.303 16.29 9.031 31.532 10.145 38.928 10.202v32.372c0 35.869-21.081 66.82-51.542 81.161-5.187 2.442-17.818-.175-17.818-.175s-8.248 8.016-13.317 8.412c-2.443.19-4.912.283-7.405.274z" fill="#f1ccbd"/></g><g><path d="m314.859 87.156v23.252c0 49.63-40.36 89.844-90.081 89.672-8.028-.028-15.797-1.128-23.185-3.153 14.995 11.59 33.717 18.536 54.091 18.606 49.721.172 90.081-40.042 90.081-89.672 0-15.942 0-16.431 0-32.372-6.164-.049-17.78-.849-30.906-6.333z" fill="#eaad9c"/></g></g><path d="m348.544 331.303c3.794 1.75 8.445.139 10.253-3.778 5.353-11.599 8.305-24.462 8.536-37.199.156-8.576-.914-17.217-3.129-25.55l-18.398-6.184c4.172 9.912 6.272 20.744 6.076 31.453-.192 10.615-2.653 21.336-7.116 31.006-1.788 3.874-.096 8.464 3.778 10.252z" fill="#dfdce0"/><path d="m345.806 258.592c3.716 8.828 5.777 18.387 6.047 27.938 5.667 2.202 10.792 5.338 15.214 9.2.14-1.801.234-3.604.266-5.403.156-8.576-.914-17.217-3.129-25.55z" fill="#c7c2c9"/><path d="m155.067 313.432c1.123 3.169 4.103 5.148 7.283 5.148 5.169 0 9.032-5.372 7.283-10.309-2.312-6.524-3.649-13.293-3.974-20.116-.501-10.551 1.477-21.292 5.726-31.308l-18.392 6.182c-2.226 8.484-3.179 17.216-2.769 25.86.397 8.335 2.025 16.593 4.843 24.543z" fill="#dfdce0"/><g><path d="m188.694 380.987h-7.219c-4.268 0-7.726-3.459-7.726-7.726s3.459-7.726 7.726-7.726h4.812v-23.02c0-13.199-10.737-23.937-23.937-23.937-13.199 0-23.937 10.737-23.937 23.937v23.02h4.812c4.268 0 7.726 3.459 7.726 7.726s-3.459 7.726-7.726 7.726h-7.219c-7.193 0-13.045-5.852-13.045-13.045v-25.428c0-21.719 17.67-39.389 39.389-39.389s39.389 17.67 39.389 39.389v25.428c0 7.193-5.852 13.045-13.045 13.045z" fill="#f1eff1"/></g><ellipse cx="353.577" cy="345.553" fill="#f1eff1" rx="27.736" ry="27.708"/></g></g></g></svg>