<svg id="Capa_1" enable-background="new 0 0 512 512" height="512" viewBox="0 0 512 512" width="512" xmlns="http://www.w3.org/2000/svg"><g><path d="m319.613 335.773c0-3.184-.384-6.354-1.142-9.42-.993-4.021-5.058-6.474-9.08-5.483-4.021.993-6.476 5.059-5.483 9.08.467 1.892.704 3.851.704 5.824 0 33.092-36.254 62.379-48.613 71.399-12.363-9.024-48.613-38.31-48.613-71.399 0-13.331 10.846-24.177 24.177-24.177 7.238 0 14.037 3.206 18.653 8.795 1.425 1.726 3.545 2.725 5.783 2.725s4.358-.999 5.783-2.725c4.616-5.589 11.415-8.795 18.653-8.795 1.973 0 3.934.237 5.826.705 4.022.991 8.086-1.46 9.081-5.482.993-4.021-1.461-8.087-5.482-9.081-3.069-.758-6.24-1.143-9.425-1.143-8.989 0-17.558 3.049-24.436 8.549-6.878-5.5-15.447-8.549-24.436-8.549-21.602 0-39.177 17.575-39.177 39.177 0 20.396 10.144 41.29 30.149 62.103 14.468 15.051 28.794 24.36 29.397 24.749 1.238.798 2.652 1.198 4.066 1.198s2.828-.399 4.066-1.198c.603-.389 14.93-9.698 29.397-24.749 20.008-20.813 30.152-41.707 30.152-62.103z"/><path d="m169.84 304.889c-3.991-1.114-8.126 1.217-9.241 5.206-20.718 74.183-24.184 189.328-24.322 194.193-.117 4.141 3.145 7.592 7.285 7.709.072.002.144.003.216.003 4.044 0 7.378-3.22 7.493-7.288.033-1.173 3.556-118.187 23.775-190.582 1.115-3.989-1.216-8.127-5.206-9.241z"/><path d="m368.644 234.689-41.931-17.471c-9.183-3.826-15.117-12.727-15.117-22.675v-10.688c0-.472-.049-.933-.132-1.381 2.445-2.06 4.777-4.273 6.945-6.669 12.458-13.765 19.058-31.871 18.483-50.315 8.703-3.47 14.785-11.945 14.785-21.797 0-10.354-6.724-19.16-16.032-22.3v-25.796c0-30.657-24.94-55.597-55.597-55.597h-48.097c-30.656 0-55.597 24.94-55.597 55.597v25.797c-9.308 3.139-16.032 11.946-16.032 22.3 0 9.852 6.082 18.327 14.785 21.797-.573 18.443 6.027 36.551 18.483 50.315 2.168 2.396 4.5 4.609 6.945 6.669-.083.448-.132.908-.132 1.381v10.688c0 9.948-5.934 18.849-15.117 22.675l-41.931 17.471c-23.78 9.909-39.146 32.958-39.146 58.72v211.09c0 4.142 3.358 7.5 7.5 7.5s7.5-3.358 7.5-7.5v-211.091c0-19.688 11.743-37.301 29.916-44.874l41.931-17.471c14.79-6.162 24.347-20.498 24.347-36.521v-2.408c9.662 4.694 20.352 7.236 31.297 7.236h18.599c10.946 0 21.635-2.542 31.297-7.236v2.408c0 16.023 9.557 30.359 24.347 36.521l41.931 17.471c18.173 7.572 29.916 25.186 29.916 44.874v211.091c0 4.142 3.358 7.5 7.5 7.5s7.5-3.358 7.5-7.5v-211.091c.001-25.763-15.366-48.811-39.146-58.72zm-61.356-68.949c-10.715 11.84-26.02 18.631-41.988 18.631h-18.599c-15.969 0-31.273-6.791-41.988-18.631s-15.949-27.744-14.36-43.634l.171-1.715c.204-2.043-.438-4.082-1.778-5.638s-3.26-2.496-5.311-2.598c-4.549-.227-8.112-3.943-8.112-8.461 0-4.705 3.828-8.532 8.532-8.532h24.049c4.142 0 7.5-3.358 7.5-7.5s-3.358-7.5-7.5-7.5h-16.549v-24.565c0-22.385 18.211-40.597 40.597-40.597h48.097c22.385 0 40.597 18.211 40.597 40.597v24.559c-.256.003-.444.005-.516.005-66.948 0-90.465-21.456-90.94-21.902-2.933-2.878-7.645-2.862-10.556.05-2.929 2.929-2.929 7.678 0 10.606 1.072 1.072 27.1 26.245 101.497 26.245h8.016c4.705 0 8.532 3.828 8.532 8.532 0 4.518-3.563 8.234-8.112 8.461-2.051.103-3.971 1.042-5.311 2.598s-1.982 3.595-1.778 5.638l.171 1.716c1.588 15.892-3.647 31.795-14.361 43.635z"/><path d="m342.16 304.889c-3.989 1.114-6.32 5.251-5.206 9.241 20.219 72.395 23.742 189.408 23.775 190.582.115 4.068 3.449 7.288 7.493 7.288.071 0 .144-.001.216-.003 4.141-.117 7.402-3.568 7.285-7.709-.138-4.865-3.604-120.01-24.322-194.193-1.114-3.989-5.248-6.32-9.241-5.206z"/><path d="m186.568 394.987-8.016 8.016c-2.929 2.929-2.929 7.678 0 10.606 1.464 1.464 3.384 2.197 5.303 2.197s3.839-.732 5.303-2.197l8.016-8.016c2.929-2.929 2.929-7.678 0-10.606-2.928-2.928-7.677-2.928-10.606 0z"/><path d="m325.432 394.987c-2.929-2.929-7.678-2.929-10.606 0-2.929 2.929-2.929 7.678 0 10.606l8.016 8.016c1.464 1.464 3.384 2.197 5.303 2.197s3.839-.732 5.303-2.197c2.929-2.929 2.929-7.678 0-10.606z"/><path d="m301.655 419.321c-2.771-3.079-7.514-3.329-10.592-.557-3.079 2.771-3.328 7.513-.557 10.592l3.006 3.34c1.481 1.646 3.524 2.482 5.577 2.482 1.788 0 3.582-.635 5.015-1.926 3.079-2.771 3.328-7.513.557-10.592z"/><path d="m226.865 279.534c.855 0 1.724-.147 2.574-.458 3.891-1.422 5.892-5.728 4.47-9.619l-2.929-8.016c-1.422-3.891-5.73-5.893-9.619-4.47-3.891 1.422-5.892 5.728-4.47 9.619l2.929 8.016c1.112 3.041 3.985 4.928 7.045 4.928z"/><path d="m285.135 279.534c3.06 0 5.934-1.887 7.045-4.928l2.929-8.016c1.422-3.891-.58-8.197-4.47-9.619-3.891-1.422-8.197.58-9.619 4.47l-2.929 8.016c-1.422 3.891.58 8.197 4.47 9.619.85.311 1.719.458 2.574.458z"/><path d="m220.937 418.765c-3.078-2.771-7.82-2.521-10.592.557l-3.006 3.34c-2.771 3.079-2.522 7.821.557 10.592 1.434 1.291 3.227 1.926 5.015 1.926 2.052 0 4.096-.837 5.577-2.482l3.006-3.34c2.771-3.08 2.522-7.822-.557-10.593z"/><circle cx="191.875" cy="287.875" r="7.5"/><circle cx="320.13" cy="287.875" r="7.5"/></g></svg>